<svg xmlns="http://www.w3.org/2000/svg" viewBox="0 0 96.61 96.61">
  <title>dmx-icon</title>
  <!-- <circle cx="48.31" cy="48.31" r="48.31" fill="#231f20"/> -->
  <path d="M16.13,40.22a0.57,0.57,0,0,1,.54-0.57H24a10.57,10.57,0,1,1,0,21.15H16.68a0.57,0.57,0,0,1-.54-0.57v-20Zm7.61,16.1a6.12,6.12,0,0,0,0-12.24h-2.9V56.32h2.9Z" transform="translate(-2 -1.89)" fill="#fff"/>
  <path d="M41.94,39.83a0.58,0.58,0,0,1,.54-0.48H43a0.67,0.67,0,0,1,.51.3l7,13.05h0.06l7-13.05a0.67,0.67,0,0,1,.51-0.3h0.48a0.58,0.58,0,0,1,.54.48l3.41,20.3a0.55,0.55,0,0,1-.57.67H58.38a0.61,0.61,0,0,1-.57-0.48L56.44,51H56.38l-5.08,9.79a0.71,0.71,0,0,1-.51.33H50.25a0.66,0.66,0,0,1-.51-0.33L44.63,51H44.57l-1.33,9.34a0.59,0.59,0,0,1-.57.48H39.1a0.55,0.55,0,0,1-.57-0.67Z" transform="translate(-2 -1.89)" fill="#fff"/>
  <path d="M72.37,49.95l-6.1-9.46a0.54,0.54,0,0,1,.51-0.85h4.41a0.65,0.65,0,0,1,.48.27l3.47,5.62h0l3.53-5.62a0.6,0.6,0,0,1,.48-0.27h4.41a0.54,0.54,0,0,1,.51.85L78,49.95l6.34,10a0.53,0.53,0,0,1-.48.85h-4.2a0.68,0.68,0,0,1-.51-0.27l-4-6.1H75.12l-3.87,6.1a0.67,0.67,0,0,1-.51.27h-4.2A0.54,0.54,0,0,1,66,59.95Z" transform="translate(-2 -1.89)" fill="#fff"/>
</svg>
