<svg xmlns="http://www.w3.org/2000/svg" viewBox="0 0 83.61 89.62">
  <title>logo-icon</title>
  <circle cx="38.69" cy="44.81" r="6.72" fill="white"/>
  <polygon points="10.03 72.21 81.93 45 81.93 60.3 9.39 87.24 10.03 72.21" fill="white"/>
  <circle cx="16.17" cy="77.59" r="1.75" fill="white"/>
  <circle cx="23.94" cy="74.46" r="1.75" fill="white"/>
  <circle cx="31.84" cy="71.45" r="1.75" fill="white"/>
  <path d="M47.67,4.33A44.22,44.22,0,0,0,16.58,17a1.42,1.42,0,0,0-.38,1,1,1,0,0,0,.5.88,31.8,31.8,0,0,1,3,2.88,38.82,38.82,0,0,0-1,53.15l-1.63.63a1.1,1.1,0,0,0-.75,1.13v16A1.18,1.18,0,0,0,17.58,94H91a1.18,1.18,0,0,0,1.25-1.25V48.83A44.7,44.7,0,0,0,47.67,4.33Zm42,46.5V63.5L18.71,90.19V77.53ZM46.79,57.1a8.15,8.15,0,1,0-7.9-10.28A83.18,83.18,0,0,0,23.1,21.88a36.47,36.47,0,0,1,61,26.95v1.5l-40.24,15a76.82,76.82,0,0,0-2-9.9A8.18,8.18,0,0,0,46.79,57.1ZM41.15,49a5.64,5.64,0,1,1,5.64,5.64A5.62,5.62,0,0,1,41.15,49ZM19.34,17.87A42.06,42.06,0,0,1,89.78,48.2l-3.13,1.13v-0.5A39,39,0,0,0,21.47,20Zm-8.15,31A36.82,36.82,0,0,1,21.34,23.51c6.39,7,17.42,21.81,20.06,42.74L21.09,73.9A36.33,36.33,0,0,1,11.19,48.83ZM22.35,91.57L89.66,66.25V91.57H22.35Z" transform="translate(-8.68 -4.33)" fill="white"/>
  <path d="M23.73,31.28a1.35,1.35,0,0,0-1.75.38,31.83,31.83,0,0,0-4.76,16.8,35.65,35.65,0,0,0,1.25,9,1.25,1.25,0,0,0,1.25.88h0.38a1.36,1.36,0,0,0,.88-1.5,31.67,31.67,0,0,1-1.25-8.4A29.42,29.42,0,0,1,24.1,32.91,1.11,1.11,0,0,0,23.73,31.28Z" transform="translate(-8.68 -4.33)" fill="white"/></svg>
