<svg xmlns="http://www.w3.org/2000/svg" viewBox="0 0 96.61 96.61">
  <title>resize-icon</title>
  <!-- <circle cx="48.31" cy="48.31" r="48.31" fill="#231f20"/> -->
  <polygon points="56.53 31.04 62.62 31.27 52.26 41.63 55.84 45.22 66.2 34.86 66.43 40.94 71.5 40.75 70.96 26.51 56.73 25.97 56.53 31.04" fill="#fff"/>
  <polygon points="41.47 65.9 35.38 65.68 45.74 55.32 42.16 51.73 31.8 62.09 31.57 56.01 26.5 56.2 27.04 70.44 41.27 70.97 41.47 65.9" fill="#fff"/>
  <polygon points="66.43 56.01 66.2 62.09 55.84 51.73 52.26 55.32 62.62 65.68 56.53 65.9 56.73 70.97 70.96 70.44 71.5 56.2 66.43 56.01" fill="#fff"/>
  <polygon points="31.8 34.86 42.16 45.22 45.74 41.63 35.38 31.27 41.47 31.04 41.27 25.97 27.04 26.51 26.5 40.75 31.57 40.94 31.8 34.86" fill="#fff"/>
</svg>
