<?xml version="1.0" encoding="utf-8"?>
<!-- Generator: Adobe Illustrator 19.2.1, SVG Export Plug-In . SVG Version: 6.00 Build 0)  -->
<svg version="1.1" id="Layer_1" xmlns="http://www.w3.org/2000/svg" xmlns:xlink="http://www.w3.org/1999/xlink" x="0px" y="0px"
	 viewBox="0 0 60 65" style="enable-background:new 0 0 60 65;" xml:space="preserve">
<style type="text/css">
	.st0{fill:#FFFFFF;}
</style>
<title>3D GUI - Outline - 018 - Sphere wire</title>
<desc>Created with Sketch.</desc>
<g>
	<g>
		<path class="st0" d="M56.8,18.7c0,0-0.1-0.1-0.1-0.1C54.3,14,50.7,10,46.4,7.2c0,0,0,0,0,0c0,0-0.1,0-0.1-0.1
			c-9.9-6.4-22.7-6.3-32.6,0.1c0,0-0.1,0-0.1,0.1c0,0,0,0,0,0C5.9,12.3,1,20.5,0.1,29.6s2.5,18,9.1,24.3c0,0.1,0.1,0.1,0.1,0.1
			c0.2,0.2,0.4,0.4,0.7,0.6c0.1,0.1,0.2,0.2,0.3,0.2c3.1,2.7,6.7,4.7,10.6,6c0,0,0.1,0,0.1,0c5.9,1.9,12.2,1.9,18.1,0
			c0,0,0.1,0,0.1,0c3.9-1.3,7.5-3.3,10.6-6c0.1-0.1,0.2-0.1,0.3-0.2c0.3-0.3,0.6-0.6,1-0.9c0,0,0.1-0.1,0.1-0.1
			c9.2-9,11.5-22.9,5.9-34.4C57,19,56.9,18.9,56.8,18.7z M54.7,19.1c-1.7,1.2-3.4,2.2-5.3,3c-1.7-3.9-3.9-7.4-6.7-10.5
			c1.2-0.6,2.3-1.3,3.2-2.3C49.5,11.8,52.5,15.2,54.7,19.1L54.7,19.1z M57.3,38.5c-1,4.3-3,8.4-5.9,11.8c0.4-1.5,0.7-3.1,1-4.6
			c0.2-1.6,0.4-3.2,0.5-4.8c0-0.2,0-0.5,0-0.7C54.4,39.7,55.9,39.1,57.3,38.5L57.3,38.5z M31,60.3v-4c0,0,0.1,0,0.1,0
			c2.6,0,5.3-0.2,7.8-0.5c0,0.1,0,0.2-0.1,0.2c-0.3,1.1-0.6,2.1-0.9,3.1C35.7,59.8,33.4,60.2,31,60.3L31,60.3z M22,59.2
			c-0.3-1-0.6-2-0.9-3.1c0,0,0-0.1,0-0.2c2.6,0.2,5.3,0.4,8,0.4v4C26.6,60.2,24.3,59.8,22,59.2L22,59.2z M7.1,40.7
			c0,0.1,0,0.2,0,0.3c0.1,1.6,0.2,3.2,0.5,4.8c0.2,1.6,0.6,3.1,1,4.6C5.8,47,3.8,43.2,2.8,39c1.2,0.5,2.4,1,3.6,1.4
			C6.6,40.5,6.9,40.6,7.1,40.7z M41,39.7c0,0.5,0,1.1,0,1.6c-3.3,0.5-6.6,0.9-10,0.9v-14c3-0.1,5.9-0.4,8.8-0.9
			C40.6,31.3,41,35.5,41,39.7z M48.8,52.3c-2.4,0.5-4.8,0.9-7.2,1.2c0.4-2,0.8-4.1,1-6.1c0.2-1.5,0.3-2.8,0.4-4.2c0-0.1,0-0.2,0-0.3
			c2.7-0.5,5.4-1.2,8-2c-0.1,1.5-0.2,3-0.4,4.4C50.1,47.7,49.5,50,48.8,52.3L48.8,52.3z M11.3,52.5c-0.8-2.3-1.4-4.7-1.8-7.1
			c-0.2-1.3-0.3-2.7-0.4-4.1c1.8,0.6,3.8,1,5.8,1.5c0.7,0.1,1.5,0.3,2.2,0.4c0,0,0,0.1,0,0.2c0.1,1.3,0.2,2.7,0.3,4.1
			c0.2,2.1,0.6,4.2,1,6.2c-0.4-0.1-0.9-0.1-1.3-0.2C15.2,53.2,13.2,52.9,11.3,52.5L11.3,52.5z M31,6.2c1.3,1.8,2.5,3.7,3.5,5.7
			c-1.2,0.2-2.3,0.3-3.5,0.3V6.2z M29,12.2c-1.2,0-2.4-0.1-3.5-0.3c1-2,2.2-3.9,3.5-5.7V12.2z M31,14.2c1.5,0,3-0.2,4.5-0.4
			c1,2.1,1.8,4.2,2.5,6.4c0.6,1.7,1,3.4,1.4,5.2c-2.8,0.5-5.6,0.8-8.4,0.9V14.2z M36.6,11.5c-0.9-1.8-1.9-3.5-3-5.1
			C34,6.7,34.5,7,35,7.3c1.5,1.1,2.9,2.2,4.2,3.5C38.3,11.1,37.5,11.3,36.6,11.5z M23.4,11.6c-0.3-0.1-0.6-0.1-0.8-0.2
			c-0.6-0.2-1.2-0.3-1.8-0.5c1.3-1.3,2.8-2.5,4.3-3.6C25.5,7,26,6.7,26.4,6.4C25.3,8.1,24.3,9.8,23.4,11.6L23.4,11.6z M24.5,13.8
			c1.5,0.2,3,0.4,4.5,0.4v12c-2.8,0-5.6-0.3-8.4-0.8c0.4-1.8,0.9-3.6,1.4-5.3C22.7,18,23.5,15.9,24.5,13.8L24.5,13.8z M29,28.2v14
			c-3.3,0-6.7-0.3-10-0.8c0-0.6,0-1.2,0-1.8c0-4.1,0.4-8.3,1.2-12.3C23.1,27.9,26,28.2,29,28.2L29,28.2z M20.6,53.9
			c-0.5-2.2-0.9-4.4-1.1-6.7c-0.2-1.3-0.3-2.5-0.3-3.7c3.3,0.5,6.6,0.7,9.9,0.7v10.1C26.2,54.3,23.4,54.2,20.6,53.9z M31,44.2
			c3.3-0.1,6.6-0.4,9.9-0.9c-0.1,1.2-0.2,2.5-0.3,3.9c-0.2,2.2-0.6,4.4-1.1,6.6c-2.7,0.3-5.5,0.5-8.4,0.5l-0.1,0V44.2z M41.3,24.9
			c-0.4-1.8-0.9-3.6-1.5-5.4c-0.7-2.1-1.5-4.1-2.4-6.1c1.1-0.2,2.2-0.6,3.2-1c2.9,3.1,5.2,6.6,6.8,10.5
			C45.5,23.7,43.5,24.4,41.3,24.9L41.3,24.9z M41.2,10c-1.6-1.6-3.3-3.1-5.1-4.3c-0.5-0.3-1-0.7-1.4-1c3.3,0.6,6.5,1.7,9.5,3.5
			C43.3,8.9,42.3,9.6,41.2,10L41.2,10z M23.9,5.7C22,7,20.3,8.5,18.7,10.1l-0.1-0.1c-1-0.5-2-1.1-2.9-1.8c3-1.8,6.2-3,9.6-3.5
			C24.8,5,24.4,5.4,23.9,5.7z M19.2,12.5c0.9,0.3,1.9,0.6,2.9,0.9c0.1,0,0.3,0.1,0.4,0.1c-0.9,2-1.7,4-2.4,6.1
			c-0.6,1.8-1.1,3.6-1.5,5.5c-0.5-0.1-0.9-0.2-1.4-0.3c-1.7-0.4-3.3-0.9-4.9-1.6c0,0,0-0.1,0.1-0.1C14.1,19.1,16.4,15.6,19.2,12.5
			L19.2,12.5z M11.6,25c1.7,0.7,3.4,1.2,5.2,1.6c0.5,0.1,1,0.2,1.4,0.3c-0.8,4.2-1.2,8.5-1.2,12.7c0,0.5,0,0.9,0,1.4
			c-0.6-0.1-1.1-0.2-1.7-0.3c-2.1-0.4-4.2-1-6.2-1.6C9.1,34.3,9.9,29.5,11.6,25L11.6,25z M16.9,55.5c0.7,0.1,1.4,0.2,2,0.2
			c0.1,0.3,0.1,0.6,0.2,0.9c0.2,0.6,0.3,1.2,0.5,1.7c-2.2-0.9-4.2-2-6.1-3.4C14.7,55.2,15.8,55.3,16.9,55.5L16.9,55.5z M40.9,56.6
			c0.1-0.3,0.2-0.6,0.2-1c1.9-0.2,3.8-0.5,5.7-0.9c-2,1.5-4.1,2.7-6.4,3.6C40.5,57.8,40.7,57.2,40.9,56.6L40.9,56.6z M43,40.9
			c0-0.4,0-0.8,0-1.2c0-4.3-0.4-8.6-1.2-12.9c2.2-0.5,4.4-1.2,6.5-2.1c1.7,4.5,2.6,9.3,2.6,14.1C48.3,39.7,45.7,40.4,43,40.9
			L43,40.9z M14,9.4c1,0.9,2.1,1.7,3.3,2.3c-2.8,3.1-5,6.7-6.7,10.5c0,0.1,0,0.1-0.1,0.2c-1.9-0.8-3.7-1.8-5.3-3
			C7.3,15.4,10.3,12,14,9.4L14,9.4z M4.3,21.3c1.7,1.2,3.6,2.2,5.5,3c-1.7,4.6-2.6,9.4-2.7,14.3l0,0c-1.7-0.6-3.2-1.2-4.8-1.9
			C1.5,31.4,2.2,26.1,4.3,21.3L4.3,21.3z M57.7,36.1c-1.5,0.8-3.2,1.4-4.8,2.1c-0.1-4.8-1-9.6-2.8-14.2c1.9-0.9,3.7-1.9,5.4-3.1
			C57.7,25.6,58.5,30.9,57.7,36.1L57.7,36.1z"/>
	</g>
</g>
</svg>
